<svg width="47" height="19" viewBox="0 0 47 19" fill="none" xmlns="http://www.w3.org/2000/svg">
<rect y="0.8125" width="47" height="18" rx="3" fill="#0066CC"/>
<path d="M7.88 7.2825V14.8125H6.2V4.1625H7.58L13.61 11.8575V4.1775H15.305V14.8125H13.835L7.88 7.2825ZM25.004 13.3275V14.8125H17.699V4.1625H24.869V5.6475H19.379V8.6775H24.134V10.0725H19.379V13.3275H25.004ZM30.5171 4.2075H32.0921L33.4121 7.8225L34.7471 4.2075H36.3221L34.4921 8.9475L36.0821 12.8625L39.3971 4.1625H41.2421L36.8771 14.8125H35.4221L33.4271 10.0425L31.4171 14.8125H29.9471L25.5971 4.1625H27.4271L30.7571 12.8625L32.3471 8.9475L30.5171 4.2075Z" fill="#FAFAFA"/>
</svg>
